<svg width="44" height="47" viewBox="0 0 44 47" fill="none" xmlns="http://www.w3.org/2000/svg">
<circle cx="20.1581" cy="23.1581" r="21.6581" fill="#80298F" stroke="white" stroke-width="3"/>
<path d="M40.124 25.9395C39.0129 33.9899 33.1493 40.5212 25.4551 42.6113L15.8623 34.7246L21.8105 23.1582L21.1494 14.2354L24.7852 10.6006L40.124 25.9395Z" fill="#5E1F69"/>
<path d="M14.4194 19.7203C15.9944 18.6704 20.1941 16.7798 24.394 17.6198L24.3384 17.6803L24.5327 17.6617L22.0464 30.4635C21.9344 31.0682 21.8784 31.5387 21.8784 31.8746C21.8785 32.3448 22.0131 32.7477 22.2817 33.0836C22.5505 33.4196 22.9424 33.6101 23.4575 33.6549C23.2111 34.4613 22.6739 35.0779 21.8452 35.5035C21.0165 35.9291 20.109 36.1412 19.1235 36.1412C17.9589 36.1412 17.018 35.8504 16.3013 35.2682C15.6069 34.6634 15.2593 33.8003 15.2593 32.6803C15.2594 31.5825 15.6286 29.2195 16.3677 25.5914L16.5024 24.9196L17.0884 21.8971C16.6115 20.6136 15.7699 19.4503 14.4194 19.7203ZM22.2476 10.2701C23.3001 10.2701 24.1517 10.505 24.8013 10.9752C25.4508 11.4456 25.7758 12.1066 25.7759 12.9576C25.7759 13.8086 25.429 14.4697 24.7349 14.9401C24.0629 15.4104 23.1889 15.6461 22.1138 15.6461C21.0386 15.6461 20.1647 15.4222 19.4927 14.9742C18.8431 14.5039 18.5181 13.8538 18.5181 13.025C18.5181 12.1515 18.8658 11.4798 19.5601 11.0094C20.2767 10.5167 21.1726 10.2702 22.2476 10.2701Z" fill="white"/>
</svg>
